<svg width="20" height="20" viewBox="0 0 53 53" fill="#2b87da" xmlns="http://www.w3.org/2000/svg">
	<g id="Group 1">
		<g id="Layer_1_00000162333103265806981530000017146624247591674556_">
			<g id="Group">
				<g id="Clip path group">
					<mask id="mask0_5_4" maskUnits="userSpaceOnUse" x="0" y="0" width="53" height="53">
						<g id="SVGID_00000112608340804245442460000013986219178199086244_">
							<path id="Vector" fill="white" d="M0 0H53V53H0V0ZM23.3 37.2C24.7 37.2 25.8 36.1 25.8 34.7C25.8 33.3 24.7 32.2 23.3 32.2C21.9 32.2 20.8 33.3 20.8 34.7C20.8 36.1 21.9 37.2 23.3 37.2ZM33.4 27.2C34.8 27.2 35.9 26.1 35.9 24.7C35.9 23.3 34.8 22.2 33.4 22.2C32 22.2 30.9 23.3 30.9 24.7C30.9 26.1 32 27.2 33.4 27.2ZM23 22.8C24.6 22.8 25.9 21.5 25.9 19.9C25.9 18.3 24.6 17 23 17C21.4 17 20.1 18.3 20.1 19.9C20.2 21.5 21.5 22.8 23 22.8Z" />
						</g>
					</mask>
					<g mask="url(#mask0_5_4)">
						<g id="BarsClipped">
							<path id="Vector_2" d="M39.9 31.5L18 37.3C17.4 37.5 16.8 37.1 16.6 36.5C16.4 35.9 16.8 35.3 17.4 35.1L39.3 29.2C39.9 29 40.5 29.4 40.7 30C40.8 30.7 40.5 31.3 39.9 31.5Z" fill="#2b87da"/>
							<path id="Vector_3" d="M38.1 24.6L16.2 30.5C15.6 30.7 15 30.3 14.8 29.7C14.6 29.1 15 28.5 15.6 28.3L37.5 22.4C38.1 22.2 38.7 22.6 38.9 23.2C39 23.8 38.7 24.5 38.1 24.6Z" fill="#2b87da"/>
							<path id="Vector_4" d="M36.2 17.9L14.3 23.8C13.7 24 13.1 23.6 12.9 23C12.7 22.4 13.1 21.8 13.7 21.6L35.6 15.7C36.2 15.5 36.8 15.9 37 16.5C37.2 17.1 36.8 17.7 36.2 17.9Z" fill="#2b87da"/>
						</g>
					</g>
				</g>
			</g>
			<path id="Vector (Stroke)" d="M50 26.5C50 13.5284 39.4716 3 26.5 3C13.5284 3 3 13.5284 3 26.5C3 39.4716 13.5284 50 26.5 50C39.4716 50 50 39.4716 50 26.5ZM53 26.5C53 41.1284 41.1284 53 26.5 53C11.8716 53 0 41.1284 0 26.5C0 11.8716 11.8716 0 26.5 0C41.1284 0 53 11.8716 53 26.5Z" fill="#2b87da"/>
		</g>
		<path id="Vector (Stroke)_2" d="M24.8 20.1C24.8 19.2716 24.1284 18.6 23.3 18.6C22.4716 18.6 21.8 19.2716 21.8 20.1C21.8 20.9284 22.4716 21.6 23.3 21.6C24.1284 21.6 24.8 20.9284 24.8 20.1ZM26.8 20.1C26.8 22.033 25.233 23.6 23.3 23.6C21.367 23.6 19.8 22.033 19.8 20.1C19.8 18.167 21.367 16.6 23.3 16.6C25.233 16.6 26.8 18.167 26.8 20.1Z" fill="#2b87da"/>
		<path id="Vector (Stroke)_3" d="M34.7 24.8C34.7 23.9716 34.0284 23.3 33.2 23.3C32.3716 23.3 31.7 23.9716 31.7 24.8C31.7 25.6284 32.3716 26.3 33.2 26.3C34.0284 26.3 34.7 25.6284 34.7 24.8ZM36.7 24.8C36.7 26.733 35.133 28.3 33.2 28.3C31.267 28.3 29.7 26.733 29.7 24.8C29.7 22.867 31.267 21.3 33.2 21.3C35.133 21.3 36.7 22.867 36.7 24.8Z" fill="#2b87da"/>
		<path id="Vector (Stroke)_4" d="M24.5 34.8C24.5 33.9716 23.8284 33.3 23 33.3C22.1716 33.3 21.5 33.9716 21.5 34.8C21.5 35.6284 22.1716 36.3 23 36.3C23.8284 36.3 24.5 35.6284 24.5 34.8ZM26.5 34.8C26.5 36.733 24.933 38.3 23 38.3C21.067 38.3 19.5 36.733 19.5 34.8C19.5 32.867 21.067 31.3 23 31.3C24.933 31.3 26.5 32.867 26.5 34.8Z" fill="#2b87da"/>
	</g>
</svg>